<?xml version="1.0" standalone="no"?>
<!DOCTYPE svg PUBLIC "-//W3C//DTD SVG 20010904//EN"
 "http://www.w3.org/TR/2001/REC-SVG-20010904/DTD/svg10.dtd">
<svg version="1.0" xmlns="http://www.w3.org/2000/svg"
 width="16.000000pt" height="16.000000pt" viewBox="0 0 16.000000 16.000000"
 preserveAspectRatio="xMidYMid meet">

<g transform="translate(0.000000,16.000000) scale(0.100000,-0.100000)"
fill="#000000" stroke="none">
<path d="M29 131 c-37 -37 -37 -65 0 -102 37 -37 65 -37 102 0 37 37 37 65 0
102 -16 16 -39 29 -51 29 -12 0 -35 -13 -51 -29z m96 -6 c32 -31 32 -59 0 -90
-13 -14 -34 -25 -45 -25 -27 0 -70 43 -70 70 0 27 43 70 70 70 12 0 32 -11 45
-25z"/>
<path d="M50 90 c0 -5 5 -10 10 -10 6 0 10 5 10 10 0 6 -4 10 -10 10 -5 0 -10
-4 -10 -10z"/>
<path d="M90 90 c0 -5 5 -10 10 -10 6 0 10 5 10 10 0 6 -4 10 -10 10 -5 0 -10
-4 -10 -10z"/>
<path d="M43 61 c6 -24 35 -37 54 -25 9 6 18 17 20 25 3 8 0 7 -7 -3 -14 -23
-46 -23 -60 0 -7 10 -10 11 -7 3z"/>
</g>
</svg>
