<svg width="92" height="8" viewBox="0 0 92 8" fill="none" xmlns="http://www.w3.org/2000/svg">
<path d="M0.162539 5.01C0.162539 4.82333 0.229206 4.67667 0.362539 4.57C0.502539 4.46333 0.702539 4.36 0.962539 4.26L2.87254 3.36C3.23921 3.19333 3.41921 3.11 3.41254 3.11L3.73254 2.95C3.87921 2.87 4.00254 2.81 4.10254 2.77C4.20921 2.73 4.32254 2.71 4.44254 2.71C4.56921 2.71 4.66587 2.75667 4.73254 2.85C4.79921 2.94333 4.83254 3.05333 4.83254 3.18C4.83254 3.31333 4.79587 3.41333 4.72254 3.48C4.65587 3.54667 4.56587 3.61 4.45254 3.67C4.34587 3.73 4.26254 3.77667 4.20254 3.81L2.76254 4.42L1.44254 4.97C1.79587 5.10333 2.15254 5.22667 2.51254 5.34C2.87254 5.44667 3.30921 5.57333 3.82254 5.72C4.20254 5.82667 4.45254 5.9 4.57254 5.94C4.69921 5.98 4.79254 6.05 4.85254 6.15C4.91254 6.24333 4.94254 6.34 4.94254 6.44C4.94254 6.57333 4.89587 6.69 4.80254 6.79C4.71587 6.89 4.61254 6.94 4.49254 6.94C4.39921 6.94 4.26254 6.9 4.08254 6.82C3.89587 6.75333 3.76921 6.71 3.70254 6.69C3.20254 6.54333 2.52587 6.3 1.67254 5.96C1.53254 5.90667 1.39254 5.85667 1.25254 5.81C1.11921 5.75667 1.00254 5.71333 0.902539 5.68C0.702539 5.61333 0.529206 5.52 0.382539 5.4C0.235872 5.28 0.162539 5.15 0.162539 5.01ZM9.09059 0.58C9.19725 0.58 9.28392 0.61 9.35059 0.67C9.41725 0.723333 9.45059 0.79 9.45059 0.87C9.45059 0.943333 9.43392 1.01 9.40059 1.07C9.18059 1.41667 8.99059 1.74 8.83059 2.04C8.67059 2.34 8.47059 2.73 8.23059 3.21C8.13725 3.39667 7.98725 3.69333 7.78059 4.1C7.68059 4.29333 7.53725 4.61 7.35059 5.05C7.07725 5.66333 6.85392 6.13 6.68059 6.45C6.47392 6.85 6.23725 7.05 5.97059 7.05C5.63059 7.05 5.46059 6.93 5.46059 6.69C5.46059 6.59667 5.49059 6.51 5.55059 6.43C5.91059 5.90333 6.21725 5.39333 6.47059 4.9C6.73059 4.4 7.01059 3.81667 7.31059 3.15C7.65059 2.39 7.93725 1.79667 8.17059 1.37C8.28392 1.14333 8.40392 0.956667 8.53059 0.81C8.66392 0.656666 8.85059 0.58 9.09059 0.58ZM16.9857 5.01C16.9857 5.15 16.9123 5.28 16.7657 5.4C16.6257 5.52 16.4557 5.61333 16.2557 5.68C16.209 5.69333 15.9323 5.79333 15.4257 5.98C14.5257 6.32667 13.869 6.56333 13.4557 6.69C13.309 6.73 13.179 6.77667 13.0657 6.83C12.8723 6.90333 12.7357 6.94 12.6557 6.94C12.5423 6.94 12.439 6.89 12.3457 6.79C12.2523 6.68333 12.2057 6.56667 12.2057 6.44C12.2057 6.34 12.2357 6.24333 12.2957 6.15C12.3557 6.05 12.4523 5.98 12.5857 5.94C12.7057 5.9 12.9557 5.82667 13.3357 5.72C13.849 5.57333 14.2857 5.44667 14.6457 5.34C15.0057 5.22667 15.3623 5.10333 15.7157 4.97L14.3957 4.42L12.9557 3.81C12.8957 3.77667 12.8023 3.72667 12.6757 3.66C12.549 3.59333 12.459 3.52333 12.4057 3.45C12.3523 3.37667 12.3257 3.28667 12.3257 3.18C12.3257 3.05333 12.359 2.94333 12.4257 2.85C12.4923 2.75667 12.589 2.71 12.7157 2.71C12.829 2.71 12.9323 2.73 13.0257 2.77C13.119 2.80333 13.2557 2.86333 13.4357 2.95C13.589 3.03667 13.689 3.09 13.7357 3.11L16.1957 4.26C16.4557 4.36 16.6523 4.46333 16.7857 4.57C16.919 4.67667 16.9857 4.82333 16.9857 5.01Z" fill="#FFE70C"/>
<path d="M20.7798 0.649999C20.9065 0.649999 21.0198 0.683333 21.1198 0.75C21.2265 0.816667 21.2898 0.933333 21.3098 1.1C21.3898 1.62667 21.4398 2.15333 21.4598 2.68C21.4865 3.2 21.4998 3.79 21.4998 4.45C21.4998 4.73 21.4765 5.24 21.4298 5.98C21.7231 6.00667 21.9498 6.02 22.1098 6.02C22.2231 6.02 22.4798 6.00333 22.8798 5.97C23.1131 5.93667 23.3165 5.92 23.4898 5.92C23.6498 5.92 23.7965 5.93667 23.9298 5.97C24.0631 5.99667 24.1998 6.04333 24.3398 6.11C24.4798 6.19 24.5498 6.31333 24.5498 6.48C24.5498 6.61333 24.5065 6.73333 24.4198 6.84C24.3398 6.94667 24.2431 7 24.1298 7C24.0498 7 23.9231 6.98667 23.7498 6.96C23.4365 6.91333 23.1365 6.89 22.8498 6.89C22.7565 6.89 22.6498 6.89667 22.5298 6.91C22.4165 6.91667 22.3331 6.92 22.2798 6.92C22.1198 6.94 21.9598 6.95 21.7998 6.95C21.4731 6.95 21.1798 6.93333 20.9198 6.9C20.7865 6.88667 20.6531 6.83667 20.5198 6.75C20.3865 6.65667 20.3198 6.52333 20.3198 6.35C20.3198 6.25 20.3331 5.99333 20.3598 5.58C20.4065 4.89333 20.4298 4.37 20.4298 4.01C20.4298 3.73 20.4165 3.43667 20.3898 3.13C20.3631 2.82333 20.3465 2.63 20.3398 2.55C20.2798 1.98333 20.2498 1.51667 20.2498 1.15C20.2498 0.976667 20.2898 0.85 20.3698 0.77C20.4565 0.69 20.5931 0.649999 20.7798 0.649999ZM29.4186 5.64C29.5453 5.64 29.6386 5.69 29.6986 5.79C29.7653 5.88333 29.7986 5.98667 29.7986 6.1C29.7986 6.24 29.7753 6.34 29.7286 6.4C29.6886 6.45333 29.6086 6.51 29.4886 6.57C29.2086 6.70333 28.862 6.81 28.4486 6.89C28.0353 6.97 27.592 7.01 27.1186 7.01C26.5253 7.01 26.0886 6.91 25.8086 6.71C25.5353 6.51 25.3653 6.27 25.2986 5.99C25.2386 5.70333 25.2086 5.33 25.2086 4.87C25.2086 4.37667 25.2286 3.89333 25.2686 3.42C25.3086 2.94 25.3786 2.33 25.4786 1.59C25.5253 1.27 25.652 1.04 25.8586 0.9C26.0653 0.753333 26.292 0.68 26.5386 0.68C26.7453 0.68 27.082 0.673333 27.5486 0.66L28.4186 0.649999C28.7786 0.649999 29.0386 0.66 29.1986 0.68C29.3986 0.72 29.5453 0.766666 29.6386 0.82C29.7386 0.866667 29.7886 0.95 29.7886 1.07C29.7886 1.20333 29.742 1.33333 29.6486 1.46C29.562 1.58667 29.4286 1.65 29.2486 1.65C29.042 1.65 28.7453 1.63667 28.3586 1.61C27.972 1.58333 27.682 1.57 27.4886 1.57C27.322 1.57 27.1586 1.58 26.9986 1.6C26.812 1.61333 26.6786 1.63667 26.5986 1.67C26.5186 1.70333 26.472 1.76 26.4586 1.84C26.3653 2.52667 26.3186 3.03333 26.3186 3.36C26.472 3.38 26.622 3.39 26.7686 3.39C26.9553 3.39 27.1553 3.38 27.3686 3.36C27.582 3.34 27.7186 3.32667 27.7786 3.32C28.132 3.28667 28.4353 3.27 28.6886 3.27C28.8353 3.27 28.9453 3.29667 29.0186 3.35C29.0986 3.40333 29.1386 3.47667 29.1386 3.57C29.1386 3.71667 29.0986 3.83 29.0186 3.91C28.9453 3.99 28.812 4.05 28.6186 4.09C28.3853 4.13667 28.0953 4.17333 27.7486 4.2C27.4086 4.22667 27.0753 4.24 26.7486 4.24C26.6353 4.24 26.4786 4.23333 26.2786 4.22C26.2586 4.62667 26.2486 5.00333 26.2486 5.35C26.2486 5.82333 26.562 6.06 27.1886 6.06C27.522 6.06 27.7986 6.03667 28.0186 5.99C28.2386 5.94333 28.492 5.87667 28.7786 5.79C29.0453 5.69 29.2586 5.64 29.4186 5.64ZM35.3962 6.85C35.3095 6.73667 35.2362 6.61333 35.1762 6.48C35.1162 6.34 35.0529 6.17333 34.9862 5.98C34.9729 5.94667 34.9329 5.84667 34.8662 5.68C34.8062 5.51333 34.7362 5.37 34.6562 5.25C34.2362 5.31 33.8929 5.34 33.6262 5.34C33.4795 5.34 33.3162 5.33667 33.1362 5.33C32.9629 5.31667 32.8329 5.31 32.7462 5.31C32.4129 5.28333 32.1462 5.27 31.9462 5.27C31.8662 5.37667 31.7962 5.49 31.7362 5.61C31.6829 5.73 31.6129 5.91 31.5262 6.15C31.4062 6.49667 31.3029 6.74333 31.2162 6.89C31.1562 6.99 31.0395 7.04 30.8662 7.04C30.7195 7.04 30.5829 7.01 30.4562 6.95C30.3362 6.88333 30.2762 6.79333 30.2762 6.68C30.3295 6.42667 30.4129 6.16 30.5262 5.88C30.6462 5.59333 30.8162 5.21333 31.0362 4.74L31.4362 3.76C31.6562 3.2 31.8562 2.72 32.0362 2.32C32.2229 1.92 32.4662 1.44667 32.7662 0.9C32.8062 0.82 32.8729 0.753333 32.9662 0.699999C33.0595 0.639999 33.1629 0.609999 33.2762 0.609999C33.4029 0.609999 33.4929 0.619999 33.5462 0.64C33.6062 0.653333 33.6529 0.68 33.6862 0.72C33.7195 0.753333 33.7695 0.826666 33.8362 0.94C34.0629 1.29333 34.2562 1.65667 34.4162 2.03C34.5829 2.40333 34.7929 2.92 35.0462 3.58L35.2562 4.11C35.4429 4.59 35.6029 4.99333 35.7362 5.32C35.8762 5.64 36.0295 5.93333 36.1962 6.2C36.3029 6.37333 36.3562 6.49333 36.3562 6.56C36.3562 6.72 36.3062 6.84333 36.2062 6.93C36.1129 7.01 35.9895 7.05 35.8362 7.05C35.6429 7.05 35.4962 6.98333 35.3962 6.85ZM34.3662 4.43C34.2595 4.20333 34.1062 3.81 33.9062 3.25C33.6995 2.65 33.4929 2.17333 33.2862 1.82C33.1595 2.14 32.9729 2.55333 32.7262 3.06C32.5595 3.37333 32.3695 3.82667 32.1562 4.42C32.5829 4.47333 33.0429 4.5 33.5362 4.5C33.8895 4.5 34.1662 4.47667 34.3662 4.43ZM42.2827 6.06C42.3827 6.06 42.4627 6.10333 42.5227 6.19C42.5894 6.27667 42.6227 6.37 42.6227 6.47C42.6227 6.64333 42.556 6.77667 42.4227 6.87C42.296 6.95667 42.1294 7 41.9227 7C41.616 7 41.3694 6.94667 41.1827 6.84C40.996 6.73333 40.8294 6.53333 40.6827 6.24C40.636 6.13333 40.5794 5.96 40.5127 5.72C40.4527 5.48 40.3894 5.29 40.3227 5.15C40.2627 5.00333 40.1594 4.88 40.0127 4.78C39.8727 4.68 39.6794 4.62667 39.4327 4.62L39.2127 4.63C38.986 4.64333 38.816 4.65 38.7027 4.65C38.5694 4.65 38.4427 4.64 38.3227 4.62C38.336 5.5 38.3427 6.17333 38.3427 6.64C38.3427 6.76 38.2827 6.86 38.1627 6.94C38.0494 7.02 37.9194 7.06 37.7727 7.06C37.5994 7.06 37.4627 6.99333 37.3627 6.86C37.2827 6.7 37.2427 6.46333 37.2427 6.15C37.2427 6.04333 37.2494 5.89 37.2627 5.69L37.2727 5.25C37.2727 4.84333 37.2894 4.40667 37.3227 3.94C37.3494 3.40667 37.3627 3.01667 37.3627 2.77C37.3627 2.56333 37.3427 2.28667 37.3027 1.94C37.296 1.87333 37.286 1.76667 37.2727 1.62C37.2594 1.46667 37.2527 1.33 37.2527 1.21C37.2527 1.12333 37.2894 1.04333 37.3627 0.97C37.436 0.896666 37.5094 0.85 37.5827 0.83C38.1294 0.743333 38.6694 0.699999 39.2027 0.699999C40.0694 0.699999 40.7794 0.863333 41.3327 1.19C41.886 1.51667 42.1627 2.01667 42.1627 2.69C42.1627 2.89 42.1094 3.1 42.0027 3.32C41.9027 3.53333 41.776 3.7 41.6227 3.82C41.3627 4.04667 41.0827 4.19333 40.7827 4.26C40.796 4.27333 40.8694 4.34 41.0027 4.46C41.136 4.58 41.226 4.70667 41.2727 4.84L41.4027 5.24C41.516 5.56667 41.606 5.79333 41.6727 5.92C41.7394 6.04 41.826 6.1 41.9327 6.1C42.0327 6.1 42.0927 6.09333 42.1127 6.08C42.1394 6.06667 42.196 6.06 42.2827 6.06ZM38.3127 3.77C38.5127 3.78333 38.6527 3.79 38.7327 3.79C38.8527 3.79 39.0194 3.78333 39.2327 3.77L39.7027 3.76C39.9094 3.76 40.1227 3.71333 40.3427 3.62C40.5627 3.52667 40.746 3.39667 40.8927 3.23C41.0394 3.05667 41.1127 2.86333 41.1127 2.65C41.1127 2.27 40.9594 1.99333 40.6527 1.82C40.346 1.64667 39.8694 1.56 39.2227 1.56C38.976 1.56 38.686 1.59333 38.3527 1.66C38.366 1.9 38.3727 2.07333 38.3727 2.18C38.3727 2.30667 38.366 2.49667 38.3527 2.75L38.3427 3.04C38.3227 3.32 38.3127 3.56333 38.3127 3.77ZM47.6139 1.38C47.6139 1.18667 47.6572 1.02 47.7439 0.88C47.8372 0.733333 47.9739 0.66 48.1539 0.66C48.3072 0.66 48.4439 0.69 48.5639 0.75C48.6839 0.81 48.7439 0.91 48.7439 1.05C48.7439 1.32333 48.7305 1.70667 48.7039 2.2C48.6772 2.68 48.6639 3.03667 48.6639 3.27C48.6639 3.63667 48.6772 4.12667 48.7039 4.74C48.7305 5.32667 48.7439 5.75667 48.7439 6.03C48.7439 6.25 48.7405 6.41333 48.7339 6.52C48.7339 6.62667 48.6739 6.73333 48.5539 6.84C48.4405 6.94 48.2639 6.99 48.0239 6.99C47.8972 6.99 47.7872 6.97 47.6939 6.93C47.6072 6.88333 47.5472 6.83333 47.5139 6.78C47.2005 6.4 46.7439 5.75333 46.1439 4.84C45.4705 3.82 44.9205 3.04 44.4939 2.5C44.5472 2.98 44.5739 3.56667 44.5739 4.26C44.5739 4.56667 44.5672 4.96667 44.5539 5.46C44.5472 5.94667 44.5339 6.26667 44.5139 6.42C44.4872 6.61333 44.4272 6.76333 44.3339 6.87C44.2472 6.97 44.1072 7.02 43.9139 7.02C43.7672 7.02 43.6572 6.98 43.5839 6.9C43.5172 6.81333 43.4772 6.66667 43.4639 6.46C43.4572 6.18667 43.4739 5.77667 43.5139 5.23C43.5205 5.14333 43.5305 4.99333 43.5439 4.78C43.5572 4.56667 43.5639 4.37667 43.5639 4.21C43.5639 3.75 43.5405 3.22333 43.4939 2.63C43.4539 1.97667 43.4339 1.49333 43.4339 1.18C43.4339 1.02 43.4905 0.896667 43.6039 0.81C43.7239 0.723333 43.8605 0.68 44.0139 0.68C44.1472 0.68 44.2872 0.713333 44.4339 0.78C45.0072 1.5 45.7839 2.57333 46.7639 4L47.7039 5.44C47.7105 5.33333 47.7139 5.18333 47.7139 4.99C47.7139 4.65 47.7072 4.28333 47.6939 3.89C47.6805 3.49667 47.6705 3.23 47.6639 3.09C47.6305 2.44333 47.6139 1.87333 47.6139 1.38ZM58.948 1.22C58.988 1.08 59.048 0.966666 59.128 0.88C59.208 0.786666 59.2947 0.74 59.388 0.74C59.6147 0.74 59.778 0.783333 59.878 0.87C59.978 0.956666 60.028 1.10667 60.028 1.32C60.028 1.38 59.9813 1.55 59.888 1.83C59.6813 2.46333 59.4547 3.24667 59.208 4.18C59.148 4.39333 59.098 4.58 59.058 4.74C59.0247 4.9 58.9947 5.03333 58.968 5.14C58.808 5.82667 58.668 6.34333 58.548 6.69C58.508 6.79 58.438 6.87 58.338 6.93C58.238 6.98333 58.1313 7.01 58.018 7.01C57.9047 7.01 57.7913 6.98667 57.678 6.94C57.5713 6.88667 57.4947 6.82667 57.448 6.76C57.2413 6.35333 56.9847 5.8 56.678 5.1C56.378 4.39333 56.1447 3.77667 55.978 3.25C55.5647 4.29667 55.1947 5.30667 54.868 6.28C54.848 6.34 54.8247 6.40667 54.798 6.48C54.778 6.54667 54.7547 6.61667 54.728 6.69C54.6813 6.79 54.6147 6.87 54.528 6.93C54.4413 6.98333 54.3447 7.01 54.238 7.01C54.118 7.01 54.0013 6.98667 53.888 6.94C53.7747 6.88667 53.698 6.82667 53.658 6.76C53.5713 6.61333 53.478 6.38667 53.378 6.08C53.2847 5.77333 53.158 5.34333 52.998 4.79L52.748 3.94C52.5747 3.38667 52.4247 2.82 52.298 2.24C52.1713 1.66 52.108 1.31333 52.108 1.2C52.108 1.06 52.178 0.95 52.318 0.87C52.458 0.783333 52.598 0.74 52.738 0.74C52.818 0.74 52.9013 0.766666 52.988 0.82C53.0747 0.866667 53.1313 0.95 53.158 1.07C53.3913 2.31667 53.7347 3.76333 54.188 5.41C54.3613 4.99667 54.5513 4.49333 54.758 3.9C54.9713 3.30667 55.1747 2.73 55.368 2.17L55.468 1.87C55.4947 1.77 55.5613 1.69333 55.668 1.64C55.7813 1.58 55.8947 1.55 56.008 1.55C56.1547 1.55 56.2747 1.58667 56.368 1.66C56.4613 1.73333 56.5213 1.81333 56.548 1.9C56.5547 1.92667 56.688 2.32333 56.948 3.09C57.208 3.85667 57.518 4.63 57.878 5.41C58.0113 5.01667 58.1713 4.38667 58.358 3.52L58.508 2.86C58.688 2.15333 58.8347 1.60667 58.948 1.22ZM62.5927 1.48C62.566 2.05333 62.5527 2.46333 62.5527 2.71C62.5527 3.25 62.5694 3.84667 62.6027 4.5C62.6294 5.27333 62.6427 5.84667 62.6427 6.22C62.896 6.18667 63.0494 6.17 63.1027 6.17C63.2494 6.17 63.366 6.20667 63.4527 6.28C63.5394 6.35333 63.5827 6.46667 63.5827 6.62C63.5827 6.72 63.5427 6.79667 63.4627 6.85C63.3827 6.90333 63.2427 6.94333 63.0427 6.97C62.8494 6.99 62.566 7 62.1927 7C61.7794 7 61.4694 6.98667 61.2627 6.96C61.056 6.93333 60.9127 6.88333 60.8327 6.81C60.7527 6.73 60.7127 6.61333 60.7127 6.46C60.7127 6.34667 60.7494 6.27 60.8227 6.23C60.896 6.19 60.9994 6.17 61.1327 6.17L61.3427 6.18L61.6727 6.2L61.6227 5.02C61.5827 4.38 61.5627 3.79333 61.5627 3.26C61.5627 2.97333 61.5727 2.58 61.5927 2.08L61.6127 1.53C61.386 1.54333 61.2094 1.55 61.0827 1.55C60.936 1.55 60.836 1.52333 60.7827 1.47C60.736 1.41667 60.7127 1.30667 60.7127 1.14C60.7127 0.953333 60.8394 0.833333 61.0927 0.78C61.3527 0.726666 61.746 0.699999 62.2727 0.699999C62.6794 0.699999 62.9827 0.713333 63.1827 0.74C63.3894 0.766666 63.4927 0.826666 63.4927 0.92C63.4927 1.14667 63.4427 1.29667 63.3427 1.37C63.2494 1.43667 63.066 1.47 62.7927 1.47L62.5927 1.48ZM64.1032 1.17C64.1032 0.883333 64.3132 0.74 64.7332 0.74C64.9132 0.74 65.2565 0.746666 65.7632 0.76C66.3232 0.786667 66.7465 0.8 67.0332 0.8C67.2665 0.8 67.5498 0.786667 67.8832 0.76C68.1098 0.746666 68.2532 0.74 68.3132 0.74C68.6798 0.753333 68.9898 0.82 69.2432 0.94C69.3165 0.973333 69.3765 1.01333 69.4232 1.06C69.4698 1.10667 69.4932 1.18333 69.4932 1.29C69.4932 1.43667 69.4465 1.56333 69.3532 1.67C69.2598 1.77 69.1465 1.82 69.0132 1.82C68.8665 1.82 68.6532 1.8 68.3732 1.76C68.1265 1.71333 67.9098 1.69 67.7232 1.69C67.5432 1.69 67.4065 1.69333 67.3132 1.7C67.2932 1.92 67.2832 2.44667 67.2832 3.28C67.2832 4.27333 67.3132 5.28 67.3732 6.3L67.3932 6.59C67.3932 6.86333 67.2365 7 66.9232 7C66.6765 7 66.5098 6.94333 66.4232 6.83C66.3365 6.71 66.2932 6.53 66.2932 6.29C66.2932 5.81667 66.2798 5.22667 66.2532 4.52C66.2265 3.93333 66.2132 3.51667 66.2132 3.27C66.2132 3.10333 66.2332 2.59333 66.2732 1.74L65.1032 1.75C64.7298 1.75 64.4698 1.71667 64.3232 1.65C64.1765 1.57667 64.1032 1.41667 64.1032 1.17ZM74.7286 3.42C74.722 3.31333 74.7186 3.15333 74.7186 2.94V2.56C74.7186 2.30667 74.712 2.11667 74.6986 1.99C74.6853 1.88333 74.6786 1.60667 74.6786 1.16C74.6786 1 74.7253 0.876666 74.8186 0.789999C74.9186 0.696666 75.052 0.649999 75.2186 0.649999C75.432 0.649999 75.5753 0.696666 75.6486 0.789999C75.722 0.883333 75.7586 1.03667 75.7586 1.25V1.63L75.7486 2.73C75.742 2.94333 75.7386 3.26333 75.7386 3.69L75.7486 4.51C75.7553 4.63667 75.7586 4.81333 75.7586 5.04C75.7586 5.22 75.7653 5.47667 75.7786 5.81C75.792 6.11667 75.7986 6.34667 75.7986 6.5C75.7986 6.62667 75.762 6.74333 75.6886 6.85C75.622 6.95667 75.5286 7.01 75.4086 7.01C74.942 7.01 74.7086 6.85333 74.7086 6.54C74.7086 6.36667 74.7153 6.17333 74.7286 5.96C74.742 5.80667 74.7486 5.57333 74.7486 5.26C74.7486 5.04 74.742 4.72333 74.7286 4.31C74.4153 4.33667 73.8753 4.35 73.1086 4.35C72.6286 4.35 72.2553 4.35 71.9886 4.35C71.722 4.34333 71.5286 4.32667 71.4086 4.3L71.3986 5.45C71.3986 5.52333 71.4153 5.72 71.4486 6.04C71.482 6.25333 71.4986 6.44 71.4986 6.6C71.4986 6.7 71.4386 6.79667 71.3186 6.89C71.2053 6.97667 71.0986 7.02 70.9986 7.02C70.7586 7.02 70.5953 6.96333 70.5086 6.85C70.422 6.73 70.3786 6.55 70.3786 6.31L70.3686 5.52C70.362 5.42667 70.3586 5.29667 70.3586 5.13C70.3586 4.88333 70.352 4.54667 70.3386 4.12C70.3253 3.73333 70.3186 3.45333 70.3186 3.28C70.3186 3.02 70.3253 2.65667 70.3386 2.19C70.352 1.75 70.3586 1.42333 70.3586 1.21C70.3586 0.996666 70.412 0.853333 70.5186 0.78C70.6253 0.706666 70.7453 0.67 70.8786 0.67C71.252 0.67 71.4386 0.793333 71.4386 1.04C71.4386 1.48 71.4286 1.9 71.4086 2.3C71.3953 2.80667 71.3886 3.17667 71.3886 3.41C71.582 3.45667 71.7853 3.48667 71.9986 3.5C72.212 3.51333 72.512 3.52 72.8986 3.52C73.6853 3.52 74.2953 3.48667 74.7286 3.42ZM85.2586 0.68C85.3519 0.68 85.4652 0.743333 85.5986 0.87C85.7386 0.99 85.8086 1.09333 85.8086 1.18C85.8086 1.58667 85.7952 2.14333 85.7686 2.85C85.7619 3.02333 85.7552 3.23333 85.7486 3.48C85.7419 3.72 85.7386 4 85.7386 4.32C85.7386 5.33333 85.7986 6.08 85.9186 6.56C85.9119 6.72 85.8486 6.83667 85.7286 6.91C85.6086 6.97667 85.4886 7.01 85.3686 7.01C85.1019 7.01 84.9252 6.91667 84.8386 6.73C84.7586 6.54333 84.7186 6.27667 84.7186 5.93C84.7186 4.64333 84.7319 3.46 84.7586 2.38C83.9919 3.23333 83.3952 3.95 82.9686 4.53C82.9686 4.53 82.9086 4.57 82.7886 4.65C82.6752 4.75 82.5819 4.8 82.5086 4.8C82.3352 4.8 82.1919 4.75667 82.0786 4.67C81.9652 4.58333 81.8552 4.45667 81.7486 4.29L81.2686 3.61C80.9352 3.14333 80.6919 2.79 80.5386 2.55C80.5386 3.16333 80.5686 3.99667 80.6286 5.05C80.6752 5.65667 80.6986 6.11333 80.6986 6.42C80.6986 6.58 80.6586 6.71667 80.5786 6.83C80.4986 6.93667 80.3719 6.99 80.1986 6.99C80.0252 6.99 79.8819 6.95667 79.7686 6.89C79.6619 6.82333 79.6052 6.72333 79.5986 6.59C79.6052 6.47667 79.6086 6.29 79.6086 6.03C79.6086 5.51 79.5919 4.87667 79.5586 4.13L79.5386 3.59L79.5186 2.89C79.5119 2.68333 79.5052 2.44333 79.4986 2.17C79.4919 1.89 79.4886 1.58667 79.4886 1.26C79.4886 0.86 79.7052 0.66 80.1386 0.66C80.2719 0.66 80.4052 0.693333 80.5386 0.76C80.6786 0.826666 80.7819 0.923333 80.8486 1.05C80.9019 1.28333 81.0986 1.67 81.4386 2.21C81.7786 2.75 82.1119 3.25667 82.4386 3.73C82.7319 3.35667 82.9719 3.07667 83.1586 2.89C83.4786 2.56333 83.7419 2.26 83.9486 1.98C84.1619 1.7 84.3919 1.36333 84.6386 0.97C84.6986 0.89 84.7852 0.823333 84.8986 0.77C85.0119 0.71 85.1319 0.68 85.2586 0.68ZM91.4499 5.64C91.5765 5.64 91.6699 5.69 91.7299 5.79C91.7965 5.88333 91.8299 5.98667 91.8299 6.1C91.8299 6.24 91.8065 6.34 91.7599 6.4C91.7199 6.45333 91.6399 6.51 91.5199 6.57C91.2399 6.70333 90.8932 6.81 90.4799 6.89C90.0665 6.97 89.6232 7.01 89.1499 7.01C88.5565 7.01 88.1199 6.91 87.8399 6.71C87.5665 6.51 87.3965 6.27 87.3299 5.99C87.2699 5.70333 87.2399 5.33 87.2399 4.87C87.2399 4.37667 87.2599 3.89333 87.2999 3.42C87.3399 2.94 87.4099 2.33 87.5099 1.59C87.5565 1.27 87.6832 1.04 87.8899 0.9C88.0965 0.753333 88.3232 0.68 88.5699 0.68C88.7765 0.68 89.1132 0.673333 89.5799 0.66L90.4499 0.649999C90.8099 0.649999 91.0699 0.66 91.2299 0.68C91.4299 0.72 91.5765 0.766666 91.6699 0.82C91.7699 0.866667 91.8199 0.95 91.8199 1.07C91.8199 1.20333 91.7732 1.33333 91.6799 1.46C91.5932 1.58667 91.4599 1.65 91.2799 1.65C91.0732 1.65 90.7765 1.63667 90.3899 1.61C90.0032 1.58333 89.7132 1.57 89.5199 1.57C89.3532 1.57 89.1899 1.58 89.0299 1.6C88.8432 1.61333 88.7099 1.63667 88.6299 1.67C88.5499 1.70333 88.5032 1.76 88.4899 1.84C88.3965 2.52667 88.3499 3.03333 88.3499 3.36C88.5032 3.38 88.6532 3.39 88.7999 3.39C88.9865 3.39 89.1865 3.38 89.3999 3.36C89.6132 3.34 89.7499 3.32667 89.8099 3.32C90.1632 3.28667 90.4665 3.27 90.7199 3.27C90.8665 3.27 90.9765 3.29667 91.0499 3.35C91.1299 3.40333 91.1699 3.47667 91.1699 3.57C91.1699 3.71667 91.1299 3.83 91.0499 3.91C90.9765 3.99 90.8432 4.05 90.6499 4.09C90.4165 4.13667 90.1265 4.17333 89.7799 4.2C89.4399 4.22667 89.1065 4.24 88.7799 4.24C88.6665 4.24 88.5099 4.23333 88.3099 4.22C88.2899 4.62667 88.2799 5.00333 88.2799 5.35C88.2799 5.82333 88.5932 6.06 89.2199 6.06C89.5532 6.06 89.8299 6.03667 90.0499 5.99C90.2699 5.94333 90.5232 5.87667 90.8099 5.79C91.0765 5.69 91.2899 5.64 91.4499 5.64Z" fill="white"/>
</svg>
