<svg width="110" height="9" viewBox="0 0 110 9" fill="none" xmlns="http://www.w3.org/2000/svg">
<path d="M-0.00495311 5.612C-0.00495311 5.388 0.0750469 5.212 0.235047 5.084C0.403047 4.956 0.643047 4.832 0.955047 4.712L3.24705 3.632C3.68705 3.432 3.90305 3.332 3.89505 3.332L4.27905 3.14C4.45505 3.044 4.60305 2.972 4.72305 2.924C4.85105 2.876 4.98705 2.852 5.13105 2.852C5.28305 2.852 5.39905 2.908 5.47905 3.02C5.55905 3.132 5.59905 3.264 5.59905 3.416C5.59905 3.576 5.55505 3.696 5.46705 3.776C5.38705 3.856 5.27905 3.932 5.14305 4.004C5.01505 4.076 4.91505 4.132 4.84305 4.172L3.11505 4.904L1.53105 5.564C1.95505 5.724 2.38305 5.872 2.81505 6.008C3.24705 6.136 3.77105 6.288 4.38705 6.464C4.84305 6.592 5.14305 6.68 5.28705 6.728C5.43905 6.776 5.55105 6.86 5.62305 6.98C5.69505 7.092 5.73105 7.208 5.73105 7.328C5.73105 7.488 5.67505 7.628 5.56305 7.748C5.45905 7.868 5.33505 7.928 5.19105 7.928C5.07905 7.928 4.91505 7.88 4.69905 7.784C4.47505 7.704 4.32305 7.652 4.24305 7.628C3.64305 7.452 2.83105 7.16 1.80705 6.752C1.63905 6.688 1.47105 6.628 1.30305 6.572C1.14305 6.508 1.00305 6.456 0.883047 6.416C0.643047 6.336 0.435047 6.224 0.259047 6.08C0.0830469 5.936 -0.00495311 5.78 -0.00495311 5.612ZM10.7087 0.296C10.8367 0.296 10.9407 0.332 11.0207 0.404C11.1007 0.468 11.1407 0.548 11.1407 0.644C11.1407 0.731999 11.1207 0.811999 11.0807 0.883999C10.8167 1.3 10.5887 1.688 10.3967 2.048C10.2047 2.408 9.9647 2.876 9.6767 3.452C9.5647 3.676 9.3847 4.032 9.1367 4.52C9.0167 4.752 8.8447 5.132 8.6207 5.66C8.2927 6.396 8.0247 6.956 7.8167 7.34C7.5687 7.82 7.2847 8.06 6.9647 8.06C6.5567 8.06 6.3527 7.916 6.3527 7.628C6.3527 7.516 6.3887 7.412 6.4607 7.316C6.8927 6.684 7.2607 6.072 7.5647 5.48C7.8767 4.88 8.2127 4.18 8.5727 3.38C8.9807 2.468 9.3247 1.756 9.6047 1.244C9.7407 0.972 9.8847 0.748 10.0367 0.572C10.1967 0.388 10.4207 0.296 10.7087 0.296ZM20.1828 5.612C20.1828 5.78 20.0948 5.936 19.9188 6.08C19.7508 6.224 19.5468 6.336 19.3068 6.416C19.2508 6.432 18.9188 6.552 18.3108 6.776C17.2308 7.192 16.4428 7.476 15.9468 7.628C15.7708 7.676 15.6148 7.732 15.4788 7.796C15.2468 7.884 15.0828 7.928 14.9868 7.928C14.8508 7.928 14.7268 7.868 14.6148 7.748C14.5028 7.62 14.4468 7.48 14.4468 7.328C14.4468 7.208 14.4828 7.092 14.5548 6.98C14.6268 6.86 14.7428 6.776 14.9028 6.728C15.0468 6.68 15.3468 6.592 15.8028 6.464C16.4188 6.288 16.9428 6.136 17.3748 6.008C17.8068 5.872 18.2348 5.724 18.6588 5.564L17.0748 4.904L15.3468 4.172C15.2748 4.132 15.1628 4.072 15.0108 3.992C14.8588 3.912 14.7508 3.828 14.6868 3.74C14.6228 3.652 14.5908 3.544 14.5908 3.416C14.5908 3.264 14.6308 3.132 14.7108 3.02C14.7908 2.908 14.9068 2.852 15.0588 2.852C15.1948 2.852 15.3188 2.876 15.4308 2.924C15.5428 2.964 15.7068 3.036 15.9228 3.14C16.1068 3.244 16.2268 3.308 16.2828 3.332L19.2348 4.712C19.5468 4.832 19.7828 4.956 19.9428 5.084C20.1028 5.212 20.1828 5.388 20.1828 5.612Z" fill="#FFE600"/>
<path d="M24.7358 0.379999C24.8878 0.379999 25.0238 0.42 25.1438 0.5C25.2718 0.58 25.3478 0.72 25.3718 0.92C25.4678 1.552 25.5278 2.184 25.5518 2.816C25.5838 3.44 25.5998 4.148 25.5998 4.94C25.5998 5.276 25.5718 5.888 25.5158 6.776C25.8678 6.808 26.1398 6.824 26.3318 6.824C26.4678 6.824 26.7758 6.804 27.2558 6.764C27.5358 6.724 27.7798 6.704 27.9878 6.704C28.1798 6.704 28.3558 6.724 28.5158 6.764C28.6758 6.796 28.8398 6.852 29.0078 6.932C29.1758 7.028 29.2598 7.176 29.2598 7.376C29.2598 7.536 29.2078 7.68 29.1038 7.808C29.0078 7.936 28.8918 8 28.7558 8C28.6598 8 28.5078 7.984 28.2998 7.952C27.9238 7.896 27.5638 7.868 27.2198 7.868C27.1078 7.868 26.9798 7.876 26.8358 7.892C26.6998 7.9 26.5998 7.904 26.5358 7.904C26.3438 7.928 26.1518 7.94 25.9598 7.94C25.5678 7.94 25.2158 7.92 24.9038 7.88C24.7438 7.864 24.5838 7.804 24.4238 7.7C24.2638 7.588 24.1838 7.428 24.1838 7.22C24.1838 7.1 24.1998 6.792 24.2318 6.296C24.2878 5.472 24.3158 4.844 24.3158 4.412C24.3158 4.076 24.2998 3.724 24.2678 3.356C24.2358 2.988 24.2158 2.756 24.2078 2.66C24.1358 1.98 24.0998 1.42 24.0998 0.98C24.0998 0.772 24.1478 0.62 24.2438 0.524C24.3478 0.427999 24.5118 0.379999 24.7358 0.379999ZM35.1024 6.368C35.2544 6.368 35.3664 6.428 35.4384 6.548C35.5184 6.66 35.5584 6.784 35.5584 6.92C35.5584 7.088 35.5304 7.208 35.4744 7.28C35.4264 7.344 35.3304 7.412 35.1864 7.484C34.8504 7.644 34.4344 7.772 33.9384 7.868C33.4424 7.964 32.9104 8.012 32.3424 8.012C31.6304 8.012 31.1064 7.892 30.7704 7.652C30.4424 7.412 30.2384 7.124 30.1584 6.788C30.0864 6.444 30.0504 5.996 30.0504 5.444C30.0504 4.852 30.0744 4.272 30.1224 3.704C30.1704 3.128 30.2544 2.396 30.3744 1.508C30.4304 1.124 30.5824 0.848 30.8304 0.68C31.0784 0.504 31.3504 0.416 31.6464 0.416C31.8944 0.416 32.2984 0.408 32.8584 0.392L33.9024 0.379999C34.3344 0.379999 34.6464 0.391999 34.8384 0.416C35.0784 0.464 35.2544 0.52 35.3664 0.584C35.4864 0.64 35.5464 0.74 35.5464 0.883999C35.5464 1.044 35.4904 1.2 35.3784 1.352C35.2744 1.504 35.1144 1.58 34.8984 1.58C34.6504 1.58 34.2944 1.564 33.8304 1.532C33.3664 1.5 33.0184 1.484 32.7864 1.484C32.5864 1.484 32.3904 1.496 32.1984 1.52C31.9744 1.536 31.8144 1.564 31.7184 1.604C31.6224 1.644 31.5664 1.712 31.5504 1.808C31.4384 2.632 31.3824 3.24 31.3824 3.632C31.5664 3.656 31.7464 3.668 31.9224 3.668C32.1464 3.668 32.3864 3.656 32.6424 3.632C32.8984 3.608 33.0624 3.592 33.1344 3.584C33.5584 3.544 33.9224 3.524 34.2264 3.524C34.4024 3.524 34.5344 3.556 34.6224 3.62C34.7184 3.684 34.7664 3.772 34.7664 3.884C34.7664 4.06 34.7184 4.196 34.6224 4.292C34.5344 4.388 34.3744 4.46 34.1424 4.508C33.8624 4.564 33.5144 4.608 33.0984 4.64C32.6904 4.672 32.2904 4.688 31.8984 4.688C31.7624 4.688 31.5744 4.68 31.3344 4.664C31.3104 5.152 31.2984 5.604 31.2984 6.02C31.2984 6.588 31.6744 6.872 32.4264 6.872C32.8264 6.872 33.1584 6.844 33.4224 6.788C33.6864 6.732 33.9904 6.652 34.3344 6.548C34.6544 6.428 34.9104 6.368 35.1024 6.368ZM42.2755 7.82C42.1715 7.684 42.0835 7.536 42.0115 7.376C41.9395 7.208 41.8635 7.008 41.7835 6.776C41.7675 6.736 41.7195 6.616 41.6395 6.416C41.5675 6.216 41.4835 6.044 41.3875 5.9C40.8835 5.972 40.4715 6.008 40.1515 6.008C39.9755 6.008 39.7795 6.004 39.5635 5.996C39.3555 5.98 39.1995 5.972 39.0955 5.972C38.6955 5.94 38.3755 5.924 38.1355 5.924C38.0395 6.052 37.9555 6.188 37.8835 6.332C37.8195 6.476 37.7355 6.692 37.6315 6.98C37.4875 7.396 37.3635 7.692 37.2595 7.868C37.1875 7.988 37.0475 8.048 36.8395 8.048C36.6635 8.048 36.4995 8.012 36.3475 7.94C36.2035 7.86 36.1315 7.752 36.1315 7.616C36.1955 7.312 36.2955 6.992 36.4315 6.656C36.5755 6.312 36.7795 5.856 37.0435 5.288L37.5235 4.112C37.7875 3.44 38.0275 2.864 38.2435 2.384C38.4675 1.904 38.7595 1.336 39.1195 0.68C39.1675 0.584 39.2475 0.503999 39.3595 0.439999C39.4715 0.367999 39.5955 0.331999 39.7315 0.331999C39.8835 0.331999 39.9915 0.343999 40.0555 0.368C40.1275 0.384 40.1835 0.416 40.2235 0.464C40.2635 0.504 40.3235 0.592 40.4035 0.728C40.6755 1.152 40.9075 1.588 41.0995 2.036C41.2995 2.484 41.5515 3.104 41.8555 3.896L42.1075 4.532C42.3315 5.108 42.5235 5.592 42.6835 5.984C42.8515 6.368 43.0355 6.72 43.2355 7.04C43.3635 7.248 43.4275 7.392 43.4275 7.472C43.4275 7.664 43.3675 7.812 43.2475 7.916C43.1355 8.012 42.9875 8.06 42.8035 8.06C42.5715 8.06 42.3955 7.98 42.2755 7.82ZM41.0395 4.916C40.9115 4.644 40.7275 4.172 40.4875 3.5C40.2395 2.78 39.9915 2.208 39.7435 1.784C39.5915 2.168 39.3675 2.664 39.0715 3.272C38.8715 3.648 38.6435 4.192 38.3875 4.904C38.8995 4.968 39.4515 5 40.0435 5C40.4675 5 40.7995 4.972 41.0395 4.916ZM50.5392 6.872C50.6592 6.872 50.7552 6.924 50.8272 7.028C50.9072 7.132 50.9472 7.244 50.9472 7.364C50.9472 7.572 50.8672 7.732 50.7072 7.844C50.5552 7.948 50.3552 8 50.1072 8C49.7392 8 49.4432 7.936 49.2192 7.808C48.9952 7.68 48.7952 7.44 48.6192 7.088C48.5632 6.96 48.4952 6.752 48.4152 6.464C48.3432 6.176 48.2672 5.948 48.1872 5.78C48.1152 5.604 47.9912 5.456 47.8152 5.336C47.6472 5.216 47.4152 5.152 47.1192 5.144L46.8552 5.156C46.5832 5.172 46.3792 5.18 46.2432 5.18C46.0832 5.18 45.9312 5.168 45.7872 5.144C45.8032 6.2 45.8112 7.008 45.8112 7.568C45.8112 7.712 45.7392 7.832 45.5952 7.928C45.4592 8.024 45.3032 8.072 45.1272 8.072C44.9192 8.072 44.7552 7.992 44.6352 7.832C44.5392 7.64 44.4912 7.356 44.4912 6.98C44.4912 6.852 44.4992 6.668 44.5152 6.428L44.5272 5.9C44.5272 5.412 44.5472 4.888 44.5872 4.328C44.6192 3.688 44.6352 3.22 44.6352 2.924C44.6352 2.676 44.6112 2.344 44.5632 1.928C44.5552 1.848 44.5432 1.72 44.5272 1.544C44.5112 1.36 44.5032 1.196 44.5032 1.052C44.5032 0.948 44.5472 0.852 44.6352 0.763999C44.7232 0.676 44.8112 0.62 44.8992 0.595999C45.5552 0.491999 46.2032 0.439999 46.8432 0.439999C47.8832 0.439999 48.7352 0.635999 49.3992 1.028C50.0632 1.42 50.3952 2.02 50.3952 2.828C50.3952 3.068 50.3312 3.32 50.2032 3.584C50.0832 3.84 49.9312 4.04 49.7472 4.184C49.4352 4.456 49.0992 4.632 48.7392 4.712C48.7552 4.728 48.8432 4.808 49.0032 4.952C49.1632 5.096 49.2712 5.248 49.3272 5.408L49.4832 5.888C49.6192 6.28 49.7272 6.552 49.8072 6.704C49.8872 6.848 49.9912 6.92 50.1192 6.92C50.2392 6.92 50.3112 6.912 50.3352 6.896C50.3672 6.88 50.4352 6.872 50.5392 6.872ZM45.7752 4.124C46.0152 4.14 46.1832 4.148 46.2792 4.148C46.4232 4.148 46.6232 4.14 46.8792 4.124L47.4432 4.112C47.6912 4.112 47.9472 4.056 48.2112 3.944C48.4752 3.832 48.6952 3.676 48.8712 3.476C49.0472 3.268 49.1352 3.036 49.1352 2.78C49.1352 2.324 48.9512 1.992 48.5832 1.784C48.2152 1.576 47.6432 1.472 46.8672 1.472C46.5712 1.472 46.2232 1.512 45.8232 1.592C45.8392 1.88 45.8472 2.088 45.8472 2.216C45.8472 2.368 45.8392 2.596 45.8232 2.9L45.8112 3.248C45.7872 3.584 45.7752 3.876 45.7752 4.124ZM56.9366 1.256C56.9366 1.024 56.9886 0.824 57.0926 0.655999C57.2046 0.48 57.3686 0.392 57.5846 0.392C57.7686 0.392 57.9326 0.428 58.0766 0.5C58.2206 0.572 58.2926 0.691999 58.2926 0.86C58.2926 1.188 58.2766 1.648 58.2446 2.24C58.2126 2.816 58.1966 3.244 58.1966 3.524C58.1966 3.964 58.2126 4.552 58.2446 5.288C58.2766 5.992 58.2926 6.508 58.2926 6.836C58.2926 7.1 58.2886 7.296 58.2806 7.424C58.2806 7.552 58.2086 7.68 58.0646 7.808C57.9286 7.928 57.7166 7.988 57.4286 7.988C57.2766 7.988 57.1446 7.964 57.0326 7.916C56.9286 7.86 56.8566 7.8 56.8166 7.736C56.4406 7.28 55.8926 6.504 55.1726 5.408C54.3646 4.184 53.7046 3.248 53.1926 2.6C53.2566 3.176 53.2886 3.88 53.2886 4.712C53.2886 5.08 53.2806 5.56 53.2646 6.152C53.2566 6.736 53.2406 7.12 53.2166 7.304C53.1846 7.536 53.1126 7.716 53.0006 7.844C52.8966 7.964 52.7286 8.024 52.4966 8.024C52.3206 8.024 52.1886 7.976 52.1006 7.88C52.0206 7.776 51.9726 7.6 51.9566 7.352C51.9486 7.024 51.9686 6.532 52.0166 5.876C52.0246 5.772 52.0366 5.592 52.0526 5.336C52.0686 5.08 52.0766 4.852 52.0766 4.652C52.0766 4.1 52.0486 3.468 51.9926 2.756C51.9446 1.972 51.9206 1.392 51.9206 1.016C51.9206 0.824 51.9886 0.676 52.1246 0.572C52.2686 0.468 52.4326 0.416 52.6166 0.416C52.7766 0.416 52.9446 0.456 53.1206 0.536C53.8086 1.4 54.7406 2.688 55.9166 4.4L57.0446 6.128C57.0526 6 57.0566 5.82 57.0566 5.588C57.0566 5.18 57.0486 4.74 57.0326 4.268C57.0166 3.796 57.0046 3.476 56.9966 3.308C56.9566 2.532 56.9366 1.848 56.9366 1.256ZM70.5376 1.064C70.5856 0.896 70.6576 0.76 70.7536 0.655999C70.8496 0.543999 70.9536 0.487999 71.0656 0.487999C71.3376 0.487999 71.5336 0.539999 71.6536 0.644C71.7736 0.748 71.8336 0.928 71.8336 1.184C71.8336 1.256 71.7776 1.46 71.6656 1.796C71.4176 2.556 71.1456 3.496 70.8496 4.616C70.7776 4.872 70.7176 5.096 70.6696 5.288C70.6296 5.48 70.5936 5.64 70.5616 5.768C70.3696 6.592 70.2016 7.212 70.0576 7.628C70.0096 7.748 69.9256 7.844 69.8056 7.916C69.6856 7.98 69.5576 8.012 69.4216 8.012C69.2856 8.012 69.1496 7.984 69.0136 7.928C68.8856 7.864 68.7936 7.792 68.7376 7.712C68.4896 7.224 68.1816 6.56 67.8136 5.72C67.4536 4.872 67.1736 4.132 66.9736 3.5C66.4776 4.756 66.0336 5.968 65.6416 7.136C65.6176 7.208 65.5896 7.288 65.5576 7.376C65.5336 7.456 65.5056 7.54 65.4736 7.628C65.4176 7.748 65.3376 7.844 65.2336 7.916C65.1296 7.98 65.0136 8.012 64.8856 8.012C64.7416 8.012 64.6016 7.984 64.4656 7.928C64.3296 7.864 64.2376 7.792 64.1896 7.712C64.0856 7.536 63.9736 7.264 63.8536 6.896C63.7416 6.528 63.5896 6.012 63.3976 5.348L63.0976 4.328C62.8896 3.664 62.7096 2.984 62.5576 2.288C62.4056 1.592 62.3296 1.176 62.3296 1.04C62.3296 0.872 62.4136 0.74 62.5816 0.644C62.7496 0.539999 62.9176 0.487999 63.0856 0.487999C63.1816 0.487999 63.2816 0.52 63.3856 0.584C63.4896 0.64 63.5576 0.74 63.5896 0.883999C63.8696 2.38 64.2816 4.116 64.8256 6.092C65.0336 5.596 65.2616 4.992 65.5096 4.28C65.7656 3.568 66.0096 2.876 66.2416 2.204L66.3616 1.844C66.3936 1.724 66.4736 1.632 66.6016 1.568C66.7376 1.496 66.8736 1.46 67.0096 1.46C67.1856 1.46 67.3296 1.504 67.4416 1.592C67.5536 1.68 67.6256 1.776 67.6576 1.88C67.6656 1.912 67.8256 2.388 68.1376 3.308C68.4496 4.228 68.8216 5.156 69.2536 6.092C69.4136 5.62 69.6056 4.864 69.8296 3.824L70.0096 3.032C70.2256 2.184 70.4016 1.528 70.5376 1.064ZM74.9112 1.376C74.8792 2.064 74.8632 2.556 74.8632 2.852C74.8632 3.5 74.8832 4.216 74.9232 5C74.9552 5.928 74.9712 6.616 74.9712 7.064C75.2752 7.024 75.4592 7.004 75.5232 7.004C75.6992 7.004 75.8392 7.048 75.9432 7.136C76.0472 7.224 76.0992 7.36 76.0992 7.544C76.0992 7.664 76.0512 7.756 75.9552 7.82C75.8592 7.884 75.6912 7.932 75.4512 7.964C75.2192 7.988 74.8792 8 74.4312 8C73.9352 8 73.5632 7.984 73.3152 7.952C73.0672 7.92 72.8952 7.86 72.7992 7.772C72.7032 7.676 72.6552 7.536 72.6552 7.352C72.6552 7.216 72.6992 7.124 72.7872 7.076C72.8752 7.028 72.9992 7.004 73.1592 7.004L73.4112 7.016L73.8072 7.04L73.7472 5.624C73.6992 4.856 73.6752 4.152 73.6752 3.512C73.6752 3.168 73.6872 2.696 73.7112 2.096L73.7352 1.436C73.4632 1.452 73.2512 1.46 73.0992 1.46C72.9232 1.46 72.8032 1.428 72.7392 1.364C72.6832 1.3 72.6552 1.168 72.6552 0.968C72.6552 0.744 72.8072 0.6 73.1112 0.536C73.4232 0.471999 73.8952 0.439999 74.5272 0.439999C75.0152 0.439999 75.3792 0.455999 75.6192 0.487999C75.8672 0.52 75.9912 0.592 75.9912 0.704C75.9912 0.976 75.9312 1.156 75.8112 1.244C75.6992 1.324 75.4792 1.364 75.1512 1.364L74.9112 1.376ZM76.7238 1.004C76.7238 0.66 76.9758 0.487999 77.4798 0.487999C77.6958 0.487999 78.1078 0.496 78.7158 0.512C79.3878 0.544 79.8958 0.56 80.2398 0.56C80.5198 0.56 80.8598 0.544 81.2598 0.512C81.5318 0.496 81.7038 0.487999 81.7758 0.487999C82.2158 0.504 82.5878 0.584 82.8918 0.728C82.9798 0.768 83.0518 0.816 83.1078 0.872C83.1638 0.928 83.1918 1.02 83.1918 1.148C83.1918 1.324 83.1358 1.476 83.0238 1.604C82.9118 1.724 82.7758 1.784 82.6158 1.784C82.4398 1.784 82.1838 1.76 81.8478 1.712C81.5518 1.656 81.2918 1.628 81.0678 1.628C80.8518 1.628 80.6878 1.632 80.5758 1.64C80.5518 1.904 80.5398 2.536 80.5398 3.536C80.5398 4.728 80.5758 5.936 80.6478 7.16L80.6718 7.508C80.6718 7.836 80.4838 8 80.1078 8C79.8118 8 79.6118 7.932 79.5078 7.796C79.4038 7.652 79.3518 7.436 79.3518 7.148C79.3518 6.58 79.3358 5.872 79.3038 5.024C79.2718 4.32 79.2558 3.82 79.2558 3.524C79.2558 3.324 79.2798 2.712 79.3278 1.688L77.9238 1.7C77.4758 1.7 77.1638 1.66 76.9878 1.58C76.8118 1.492 76.7238 1.3 76.7238 1.004ZM89.4744 3.704C89.4664 3.576 89.4624 3.384 89.4624 3.128V2.672C89.4624 2.368 89.4544 2.14 89.4384 1.988C89.4224 1.86 89.4144 1.528 89.4144 0.991999C89.4144 0.799999 89.4704 0.651999 89.5824 0.547999C89.7024 0.435999 89.8624 0.379999 90.0624 0.379999C90.3184 0.379999 90.4904 0.435999 90.5784 0.547999C90.6664 0.659999 90.7104 0.843999 90.7104 1.1V1.556L90.6984 2.876C90.6904 3.132 90.6864 3.516 90.6864 4.028L90.6984 5.012C90.7064 5.164 90.7104 5.376 90.7104 5.648C90.7104 5.864 90.7184 6.172 90.7344 6.572C90.7504 6.94 90.7584 7.216 90.7584 7.4C90.7584 7.552 90.7144 7.692 90.6264 7.82C90.5464 7.948 90.4344 8.012 90.2904 8.012C89.7304 8.012 89.4504 7.824 89.4504 7.448C89.4504 7.24 89.4584 7.008 89.4744 6.752C89.4904 6.568 89.4984 6.288 89.4984 5.912C89.4984 5.648 89.4904 5.268 89.4744 4.772C89.0984 4.804 88.4504 4.82 87.5304 4.82C86.9544 4.82 86.5064 4.82 86.1864 4.82C85.8664 4.812 85.6344 4.792 85.4904 4.76L85.4784 6.14C85.4784 6.228 85.4984 6.464 85.5384 6.848C85.5784 7.104 85.5984 7.328 85.5984 7.52C85.5984 7.64 85.5264 7.756 85.3824 7.868C85.2464 7.972 85.1184 8.024 84.9984 8.024C84.7104 8.024 84.5144 7.956 84.4104 7.82C84.3064 7.676 84.2544 7.46 84.2544 7.172L84.2424 6.224C84.2344 6.112 84.2304 5.956 84.2304 5.756C84.2304 5.46 84.2224 5.056 84.2064 4.544C84.1904 4.08 84.1824 3.744 84.1824 3.536C84.1824 3.224 84.1904 2.788 84.2064 2.228C84.2224 1.7 84.2304 1.308 84.2304 1.052C84.2304 0.796 84.2944 0.624 84.4224 0.536C84.5504 0.448 84.6944 0.404 84.8544 0.404C85.3024 0.404 85.5264 0.552 85.5264 0.848C85.5264 1.376 85.5144 1.88 85.4904 2.36C85.4744 2.968 85.4664 3.412 85.4664 3.692C85.6984 3.748 85.9424 3.784 86.1984 3.8C86.4544 3.816 86.8144 3.824 87.2784 3.824C88.2224 3.824 88.9544 3.784 89.4744 3.704ZM102.11 0.416C102.222 0.416 102.358 0.492 102.518 0.644C102.686 0.788 102.77 0.912 102.77 1.016C102.77 1.504 102.754 2.172 102.722 3.02C102.714 3.228 102.706 3.48 102.698 3.776C102.69 4.064 102.686 4.4 102.686 4.784C102.686 6 102.758 6.896 102.902 7.472C102.894 7.664 102.818 7.804 102.674 7.892C102.53 7.972 102.386 8.012 102.242 8.012C101.922 8.012 101.71 7.9 101.606 7.676C101.51 7.452 101.462 7.132 101.462 6.716C101.462 5.172 101.478 3.752 101.51 2.456C100.59 3.48 99.8743 4.34 99.3623 5.036C99.3623 5.036 99.2903 5.084 99.1463 5.18C99.0103 5.3 98.8983 5.36 98.8103 5.36C98.6023 5.36 98.4303 5.308 98.2943 5.204C98.1583 5.1 98.0263 4.948 97.8983 4.748L97.3223 3.932C96.9223 3.372 96.6303 2.948 96.4463 2.66C96.4463 3.396 96.4823 4.396 96.5543 5.66C96.6103 6.388 96.6383 6.936 96.6383 7.304C96.6383 7.496 96.5903 7.66 96.4943 7.796C96.3983 7.924 96.2463 7.988 96.0383 7.988C95.8303 7.988 95.6583 7.948 95.5223 7.868C95.3943 7.788 95.3263 7.668 95.3183 7.508C95.3263 7.372 95.3303 7.148 95.3303 6.836C95.3303 6.212 95.3103 5.452 95.2703 4.556L95.2463 3.908L95.2223 3.068C95.2143 2.82 95.2063 2.532 95.1983 2.204C95.1903 1.868 95.1863 1.504 95.1863 1.112C95.1863 0.632 95.4463 0.392 95.9663 0.392C96.1263 0.392 96.2863 0.432 96.4463 0.512C96.6143 0.592 96.7383 0.708 96.8183 0.86C96.8823 1.14 97.1183 1.604 97.5263 2.252C97.9343 2.9 98.3343 3.508 98.7263 4.076C99.0783 3.628 99.3663 3.292 99.5903 3.068C99.9743 2.676 100.29 2.312 100.538 1.976C100.794 1.64 101.07 1.236 101.366 0.763999C101.438 0.668 101.542 0.588 101.678 0.524C101.814 0.452 101.958 0.416 102.11 0.416ZM109.54 6.368C109.692 6.368 109.804 6.428 109.876 6.548C109.956 6.66 109.996 6.784 109.996 6.92C109.996 7.088 109.968 7.208 109.912 7.28C109.864 7.344 109.768 7.412 109.624 7.484C109.288 7.644 108.872 7.772 108.376 7.868C107.88 7.964 107.348 8.012 106.78 8.012C106.068 8.012 105.544 7.892 105.208 7.652C104.88 7.412 104.676 7.124 104.596 6.788C104.524 6.444 104.488 5.996 104.488 5.444C104.488 4.852 104.512 4.272 104.56 3.704C104.608 3.128 104.692 2.396 104.812 1.508C104.868 1.124 105.02 0.848 105.268 0.68C105.516 0.504 105.788 0.416 106.084 0.416C106.332 0.416 106.736 0.408 107.296 0.392L108.34 0.379999C108.772 0.379999 109.084 0.391999 109.276 0.416C109.516 0.464 109.692 0.52 109.804 0.584C109.924 0.64 109.984 0.74 109.984 0.883999C109.984 1.044 109.928 1.2 109.816 1.352C109.712 1.504 109.552 1.58 109.336 1.58C109.088 1.58 108.732 1.564 108.268 1.532C107.804 1.5 107.456 1.484 107.224 1.484C107.024 1.484 106.828 1.496 106.636 1.52C106.412 1.536 106.252 1.564 106.156 1.604C106.06 1.644 106.004 1.712 105.988 1.808C105.876 2.632 105.82 3.24 105.82 3.632C106.004 3.656 106.184 3.668 106.36 3.668C106.584 3.668 106.824 3.656 107.08 3.632C107.336 3.608 107.5 3.592 107.572 3.584C107.996 3.544 108.36 3.524 108.664 3.524C108.84 3.524 108.972 3.556 109.06 3.62C109.156 3.684 109.204 3.772 109.204 3.884C109.204 4.06 109.156 4.196 109.06 4.292C108.972 4.388 108.812 4.46 108.58 4.508C108.3 4.564 107.952 4.608 107.536 4.64C107.128 4.672 106.728 4.688 106.336 4.688C106.2 4.688 106.012 4.68 105.772 4.664C105.748 5.152 105.736 5.604 105.736 6.02C105.736 6.588 106.112 6.872 106.864 6.872C107.264 6.872 107.596 6.844 107.86 6.788C108.124 6.732 108.428 6.652 108.772 6.548C109.092 6.428 109.348 6.368 109.54 6.368Z" fill="#131313"/>
</svg>
